<?xml version="1.0" encoding="UTF-8"?>
<svg id="Layer_2" data-name="Layer 2" xmlns="http://www.w3.org/2000/svg" viewBox="0 0 539.69 78.57">
  <defs>
    <style>
      .cls-1 {
        fill: #333;
      }

      .cls-2 {
        fill: #0c990a;
      }
    </style>
  </defs>
  <g id="Layer_1-2" data-name="Layer 1">
    <g>
      <g>
        <path class="cls-1" d="m54.48,6.9v32.92h-7.8V6.9h-13.24V.79h34.28v6.11h-13.24Z"/>
        <path class="cls-1" d="m76.14,39.82V.79h7.81v39.03h-7.81Z"/>
        <path class="cls-1" d="m138.47,39.82h-7.81v-18.04c0-4.07,0-9.28.11-13.35-.96,4.07-2.38,9.28-3.62,13.29l-5.49,18.1h-8.48l-5.6-18.16c-1.19-3.96-2.6-9.16-3.51-13.18.11,4.07.11,9.22.11,13.29v18.04h-7.81V.79h12.33l8.82,31.85L126.37.79h12.11v39.03Z"/>
        <path class="cls-1" d="m181.17,28.17c0,7.24-5.49,10.69-10.69,11.43-1.98.23-3.22.23-5.43.23h-14.2V.79h13.97c1.98,0,3.11,0,5.03.23,6.33.79,9.84,4.47,9.84,9.73,0,4.02-2.15,6.67-6.05,8.03,5.03,1.3,7.52,4.36,7.52,9.39Zm-22.51-11.37h5.88c.96,0,1.87-.06,2.77-.17,2.83-.45,4.24-2.04,4.24-4.86s-1.81-4.36-4.41-4.7c-.9-.11-1.92-.17-2.83-.17h-5.66v9.9Zm14.31,11.43c0-3.62-2.21-5.15-5.03-5.43-.96-.11-1.87-.17-2.77-.17h-6.51v11.03h6.79c.91,0,1.87,0,2.6-.06,2.71-.23,4.92-2.09,4.92-5.37Z"/>
        <path class="cls-1" d="m219.92,39.82h-28.17V.79h27.6v6.11h-19.8v10.29h18.38v6.17h-18.38v10.29h20.36v6.17Z"/>
        <path class="cls-1" d="m261.43,39.82h-8.54c-.96-2.66-1.53-5.03-1.92-8.71-.51-4.19-2.09-6.73-5.26-6.96-1.08-.06-2.04-.06-3.05-.06h-4.52v15.73h-7.81V.79h14.25c2.26,0,3.73.06,5.66.28,5.66.68,10.24,3.62,10.24,10.35,0,5.03-3,8.2-7.64,9.5,3.85,1.47,5.32,4.69,5.77,9.05.51,4.75,1.25,7.64,2.83,9.84Zm-17.93-21.55c1.36,0,2.32,0,3.17-.06,3.11-.28,5.6-1.81,5.6-5.6s-2.09-5.15-5.15-5.54c-.91-.11-1.87-.17-3.28-.17h-5.71v11.37h5.37Z"/>
        <path class="cls-1" d="m316.86,39.82h-8.54c-.96-2.66-1.53-5.03-1.92-8.71-.51-4.19-2.09-6.73-5.26-6.96-1.07-.06-2.04-.06-3.05-.06h-4.53v15.73h-7.81V.79h14.25c2.26,0,3.73.06,5.66.28,5.66.68,10.24,3.62,10.24,10.35,0,5.03-3,8.2-7.64,9.5,3.85,1.47,5.32,4.69,5.77,9.05.51,4.75,1.24,7.64,2.83,9.84Zm-17.93-21.55c1.36,0,2.32,0,3.17-.06,3.11-.28,5.6-1.81,5.6-5.6s-2.09-5.15-5.15-5.54c-.91-.11-1.87-.17-3.28-.17h-5.71v11.37h5.37Z"/>
        <path class="cls-1" d="m362.9,20.31c0,12.22-7.3,20.31-19.29,20.31s-19.29-8.09-19.29-20.31,7.24-20.31,19.29-20.31,19.29,8.03,19.29,20.31Zm-8.2,0c0-9.16-4.19-14.48-11.09-14.48s-11.14,5.32-11.14,14.48,4.19,14.48,11.14,14.48,11.09-5.37,11.09-14.48Z"/>
        <path class="cls-1" d="m409.9,20.31c0,12.22-7.3,20.31-19.29,20.31s-19.29-8.09-19.29-20.31,7.24-20.31,19.29-20.31,19.29,8.03,19.29,20.31Zm-8.2,0c0-9.16-4.19-14.48-11.09-14.48s-11.14,5.32-11.14,14.48,4.19,14.48,11.14,14.48,11.09-5.37,11.09-14.48Z"/>
        <path class="cls-1" d="m462.56,39.82h-7.81v-18.04c0-4.07,0-9.28.11-13.35-.96,4.07-2.38,9.28-3.62,13.29l-5.49,18.1h-8.48l-5.6-18.16c-1.19-3.96-2.6-9.16-3.51-13.18.11,4.07.11,9.22.11,13.29v18.04h-7.81V.79h12.33l8.82,31.85,8.82-31.85h12.1v39.03Z"/>
        <path class="cls-1" d="m502.32,12.27h-7.98c-.45-3.96-2.66-6.45-6.73-6.45-3.11,0-5.49,1.47-5.49,4.64s2.09,4.92,8.32,6.39c8.6,1.98,12.44,5.94,12.44,12.22,0,7.35-6.73,11.54-14.42,11.54-9.33,0-15.44-4.13-16.18-12.33h7.98c.85,4.3,4.13,6.5,8.09,6.5,3.56,0,6.39-1.92,6.39-4.92,0-3.28-2.04-5.2-7.81-6.56-7.98-1.92-13.01-4.69-13.01-11.88s6.5-11.43,13.97-11.43c9.33,0,13.58,5.32,14.42,12.27Z"/>
      </g>
      <g>
        <path class="cls-1" d="m116.35,73.1c0,3.18-2.41,4.7-4.7,5.02-.87.1-1.42.1-2.39.1h-6.24v-17.15h6.14c.87,0,1.37,0,2.21.1,2.78.35,4.33,1.96,4.33,4.28,0,1.77-.94,2.93-2.66,3.53,2.21.57,3.3,1.91,3.3,4.13Zm-9.89-5h2.59c.42,0,.82-.02,1.22-.07,1.24-.2,1.87-.89,1.87-2.14s-.8-1.91-1.94-2.06c-.4-.05-.84-.07-1.24-.07h-2.49v4.35Zm6.29,5.02c0-1.59-.97-2.26-2.21-2.39-.42-.05-.82-.07-1.22-.07h-2.86v4.85h2.98c.4,0,.82,0,1.14-.02,1.19-.1,2.16-.92,2.16-2.36Z"/>
        <path class="cls-1" d="m133.77,78.22h-12.38v-17.15h12.13v2.68h-8.7v4.52h8.08v2.71h-8.08v4.52h8.95v2.71Z"/>
        <path class="cls-1" d="m150.76,66.12h-3.5c-.2-1.74-1.17-2.83-2.96-2.83-1.37,0-2.41.65-2.41,2.04s.92,2.16,3.65,2.81c3.78.87,5.47,2.61,5.47,5.37,0,3.23-2.96,5.07-6.34,5.07-4.1,0-6.79-1.81-7.11-5.42h3.5c.37,1.89,1.81,2.86,3.55,2.86,1.57,0,2.81-.84,2.81-2.16,0-1.44-.89-2.29-3.43-2.88-3.51-.84-5.72-2.06-5.72-5.22s2.86-5.02,6.14-5.02c4.1,0,5.97,2.34,6.34,5.39Z"/>
        <path class="cls-1" d="m168.93,66.42c0,3.16-2.14,4.92-4.62,5.22-.84.1-1.49.12-2.49.12h-2.51v6.46h-3.43v-17.15h5.94c.99,0,1.64.02,2.49.12,2.61.3,4.62,2.06,4.62,5.22Zm-3.6,0c0-1.62-.84-2.39-2.04-2.56-.37-.05-.9-.07-1.52-.07h-2.46v5.27h2.46c.62,0,1.14-.02,1.52-.07,1.19-.17,2.04-.94,2.04-2.56Z"/>
        <path class="cls-1" d="m189.41,69.65c0,5.37-3.21,8.92-8.48,8.92s-8.48-3.55-8.48-8.92,3.18-8.92,8.48-8.92,8.48,3.53,8.48,8.92Zm-3.6,0c0-4.03-1.84-6.36-4.87-6.36s-4.9,2.34-4.9,6.36,1.84,6.36,4.9,6.36,4.87-2.36,4.87-6.36Z"/>
        <path class="cls-1" d="m209.01,78.22h-4.42l-5.29-6.94-1.42,1.54v5.39h-3.43v-17.15h3.43v8.28l7.41-8.28h4.08l-7.58,8.2,7.23,8.95Z"/>
        <path class="cls-1" d="m225.83,78.22h-12.38v-17.15h12.13v2.68h-8.7v4.52h8.08v2.71h-8.08v4.52h8.95v2.71Z"/>
        <path class="cls-1" d="m252.42,69.48v8.75h-2.76l-.22-2.78-.77,1.74c-.97.94-2.29,1.39-4.18,1.39-4.77,0-7.78-3.38-7.78-8.82s3.65-9.02,8.45-9.02,7.06,2.54,7.41,5.92l.03.25h-3.43l-.05-.25c-.42-2.11-1.71-3.36-4-3.36-2.78,0-4.77,2.36-4.77,6.26,0,4.28,1.99,6.46,4.67,6.46,2.21,0,3.78-1.44,4.13-3.85h-3.63v-2.68h6.91Z"/>
        <path class="cls-1" d="m274.02,69.65c0,5.37-3.21,8.92-8.48,8.92s-8.48-3.55-8.48-8.92,3.18-8.92,8.48-8.92,8.48,3.53,8.48,8.92Zm-3.6,0c0-4.03-1.84-6.36-4.87-6.36s-4.9,2.34-4.9,6.36,1.84,6.36,4.9,6.36,4.87-2.36,4.87-6.36Z"/>
        <path class="cls-1" d="m291.43,78.22h-12.38v-17.15h3.43v14.29h8.95v2.86Z"/>
        <path class="cls-1" d="m299.53,68.28h7.83v2.71h-7.83v7.23h-3.43v-17.15h12.13v2.68h-8.7v4.52Z"/>
        <path class="cls-1" d="m331.76,66.12h-3.5c-.2-1.74-1.17-2.83-2.96-2.83-1.37,0-2.41.65-2.41,2.04s.92,2.16,3.65,2.81c3.78.87,5.47,2.61,5.47,5.37,0,3.23-2.96,5.07-6.34,5.07-4.1,0-6.79-1.81-7.11-5.42h3.51c.37,1.89,1.81,2.86,3.55,2.86,1.57,0,2.81-.84,2.81-2.16,0-1.44-.9-2.29-3.43-2.88-3.5-.84-5.72-2.06-5.72-5.22s2.86-5.02,6.14-5.02c4.1,0,5.96,2.34,6.34,5.39Z"/>
        <path class="cls-1" d="m344.49,63.76v14.47h-3.43v-14.47h-5.82v-2.68h15.06v2.68h-5.82Z"/>
        <path class="cls-1" d="m368.32,71.24c0,.72,0,1.22-.05,2.01-.22,2.86-2.21,5.32-7.01,5.32s-6.81-2.46-7.04-5.32c-.05-.8-.05-1.29-.05-2.01v-10.17h3.41v10.51c0,.5,0,.87.05,1.24.15,1.96,1.34,3.18,3.63,3.18s3.46-1.22,3.6-3.18c.05-.37.05-.75.05-1.24v-10.51h3.4v10.17Z"/>
        <path class="cls-1" d="m389.04,69.43c0,5.24-3.13,8.23-7.11,8.7-.87.1-1.27.1-2.19.1h-5.87v-17.15h5.92c.92,0,1.32,0,2.19.1,3.98.47,7.06,3.01,7.06,8.25Zm-3.63.05c0-3.38-1.64-5.29-4.18-5.62-.57-.07-1.07-.1-1.84-.1h-2.09v11.76h2.04c.75,0,1.27,0,1.81-.07,2.56-.32,4.25-2.46,4.25-5.97Z"/>
        <path class="cls-1" d="m394.08,78.22v-17.15h3.43v17.15h-3.43Z"/>
        <path class="cls-1" d="m419.38,69.65c0,5.37-3.21,8.92-8.48,8.92s-8.48-3.55-8.48-8.92,3.18-8.92,8.48-8.92,8.48,3.53,8.48,8.92Zm-3.61,0c0-4.03-1.84-6.36-4.87-6.36s-4.9,2.34-4.9,6.36,1.84,6.36,4.9,6.36,4.87-2.36,4.87-6.36Z"/>
        <path class="cls-1" d="m436.45,66.12h-3.5c-.2-1.74-1.17-2.83-2.96-2.83-1.37,0-2.41.65-2.41,2.04s.92,2.16,3.65,2.81c3.78.87,5.47,2.61,5.47,5.37,0,3.23-2.96,5.07-6.34,5.07-4.1,0-6.79-1.81-7.11-5.42h3.51c.37,1.89,1.81,2.86,3.55,2.86,1.56,0,2.81-.84,2.81-2.16,0-1.44-.89-2.29-3.43-2.88-3.5-.84-5.72-2.06-5.72-5.22s2.86-5.02,6.14-5.02c4.1,0,5.96,2.34,6.34,5.39Z"/>
      </g>
      <g>
        <rect class="cls-2" x="456.79" y="67.3" width="82.9" height="3"/>
        <rect class="cls-2" y="67.3" width="82.98" height="3"/>
      </g>
    </g>
  </g>
</svg>