<?xml version="1.0" encoding="UTF-8"?>
<svg id="Layer_2" data-name="Layer 2" xmlns="http://www.w3.org/2000/svg" viewBox="0 0 540.08 78.57">
  <defs>
    <style>
      .cls-1 {
        fill: #d821bc;
      }

      .cls-2 {
        fill: #333;
      }
    </style>
  </defs>
  <g id="Layer_1-2" data-name="Layer 1">
    <g>
      <g>
        <path class="cls-2" d="m54.58,6.9v32.92h-7.81V6.9h-13.24V.79h34.28v6.11h-13.24Z"/>
        <path class="cls-2" d="m76.24,39.82V.79h7.81v39.03h-7.81Z"/>
        <path class="cls-2" d="m138.57,39.82h-7.81v-18.04c0-4.07,0-9.28.11-13.35-.96,4.07-2.38,9.28-3.62,13.29l-5.49,18.1h-8.48l-5.6-18.16c-1.19-3.96-2.6-9.16-3.51-13.18.11,4.07.11,9.22.11,13.29v18.04h-7.81V.79h12.33l8.82,31.85L126.47.79h12.1v39.03Z"/>
        <path class="cls-2" d="m181.27,28.17c0,7.24-5.49,10.69-10.69,11.43-1.98.23-3.22.23-5.43.23h-14.2V.79h13.97c1.98,0,3.11,0,5.04.23,6.33.79,9.84,4.47,9.84,9.73,0,4.02-2.15,6.67-6.05,8.03,5.03,1.3,7.52,4.36,7.52,9.39Zm-22.51-11.37h5.88c.96,0,1.87-.06,2.77-.17,2.83-.45,4.24-2.04,4.24-4.86s-1.81-4.36-4.41-4.7c-.91-.11-1.92-.17-2.83-.17h-5.66v9.9Zm14.31,11.43c0-3.62-2.21-5.15-5.03-5.43-.96-.11-1.87-.17-2.77-.17h-6.5v11.03h6.79c.9,0,1.87,0,2.6-.06,2.71-.23,4.92-2.09,4.92-5.37Z"/>
        <path class="cls-2" d="m220.02,39.82h-28.17V.79h27.6v6.11h-19.8v10.29h18.38v6.17h-18.38v10.29h20.36v6.17Z"/>
        <path class="cls-2" d="m261.53,39.82h-8.54c-.96-2.66-1.53-5.03-1.92-8.71-.51-4.19-2.09-6.73-5.26-6.96-1.08-.06-2.04-.06-3.05-.06h-4.53v15.73h-7.81V.79h14.25c2.26,0,3.73.06,5.66.28,5.66.68,10.24,3.62,10.24,10.35,0,5.03-3,8.2-7.64,9.5,3.85,1.47,5.32,4.69,5.77,9.05.51,4.75,1.24,7.64,2.83,9.84Zm-17.93-21.55c1.36,0,2.32,0,3.17-.06,3.11-.28,5.6-1.81,5.6-5.6s-2.09-5.15-5.15-5.54c-.91-.11-1.87-.17-3.28-.17h-5.71v11.37h5.37Z"/>
        <path class="cls-2" d="m316.96,39.82h-8.54c-.96-2.66-1.53-5.03-1.92-8.71-.51-4.19-2.09-6.73-5.26-6.96-1.07-.06-2.04-.06-3.05-.06h-4.52v15.73h-7.81V.79h14.25c2.26,0,3.73.06,5.66.28,5.66.68,10.24,3.62,10.24,10.35,0,5.03-3,8.2-7.64,9.5,3.85,1.47,5.32,4.69,5.77,9.05.51,4.75,1.25,7.64,2.83,9.84Zm-17.93-21.55c1.36,0,2.32,0,3.17-.06,3.11-.28,5.6-1.81,5.6-5.6s-2.09-5.15-5.15-5.54c-.9-.11-1.87-.17-3.28-.17h-5.71v11.37h5.37Z"/>
        <path class="cls-2" d="m363,20.31c0,12.22-7.3,20.31-19.29,20.31s-19.29-8.09-19.29-20.31,7.24-20.31,19.29-20.31,19.29,8.03,19.29,20.31Zm-8.2,0c0-9.16-4.19-14.48-11.09-14.48s-11.14,5.32-11.14,14.48,4.19,14.48,11.14,14.48,11.09-5.37,11.09-14.48Z"/>
        <path class="cls-2" d="m410.01,20.31c0,12.22-7.3,20.31-19.29,20.31s-19.29-8.09-19.29-20.31,7.24-20.31,19.29-20.31,19.29,8.03,19.29,20.31Zm-8.2,0c0-9.16-4.19-14.48-11.09-14.48s-11.14,5.32-11.14,14.48,4.19,14.48,11.14,14.48,11.09-5.37,11.09-14.48Z"/>
        <path class="cls-2" d="m462.66,39.82h-7.8v-18.04c0-4.07,0-9.28.11-13.35-.96,4.07-2.38,9.28-3.62,13.29l-5.49,18.1h-8.48l-5.6-18.16c-1.19-3.96-2.6-9.16-3.51-13.18.11,4.07.11,9.22.11,13.29v18.04h-7.81V.79h12.33l8.82,31.85,8.82-31.85h12.1v39.03Z"/>
        <path class="cls-2" d="m502.43,12.27h-7.98c-.45-3.96-2.66-6.45-6.73-6.45-3.11,0-5.49,1.47-5.49,4.64s2.09,4.92,8.31,6.39c8.6,1.98,12.44,5.94,12.44,12.22,0,7.35-6.73,11.54-14.42,11.54-9.33,0-15.44-4.13-16.18-12.33h7.97c.85,4.3,4.13,6.5,8.09,6.5,3.56,0,6.39-1.92,6.39-4.92,0-3.28-2.04-5.2-7.81-6.56-7.97-1.92-13.01-4.69-13.01-11.88s6.51-11.43,13.97-11.43c9.33,0,13.57,5.32,14.42,12.27Z"/>
      </g>
      <g>
        <path class="cls-2" d="m129.48,66.42c0,3.16-2.14,4.92-4.62,5.22-.85.1-1.49.12-2.49.12h-2.51v6.46h-3.43v-17.15h5.94c1,0,1.64.02,2.49.12,2.61.3,4.62,2.06,4.62,5.22Zm-3.6,0c0-1.62-.84-2.39-2.04-2.56-.37-.05-.89-.07-1.52-.07h-2.46v5.27h2.46c.62,0,1.14-.02,1.52-.07,1.19-.17,2.04-.94,2.04-2.56Z"/>
        <path class="cls-2" d="m147.62,78.22h-3.75c-.42-1.17-.67-2.21-.85-3.83-.22-1.84-.92-2.96-2.31-3.06-.47-.02-.89-.02-1.34-.02h-1.99v6.91h-3.43v-17.15h6.26c.99,0,1.64.02,2.49.12,2.49.3,4.5,1.59,4.5,4.55,0,2.21-1.32,3.6-3.36,4.18,1.69.65,2.34,2.06,2.54,3.98.22,2.09.55,3.36,1.24,4.33Zm-7.88-9.47c.6,0,1.02,0,1.39-.02,1.37-.12,2.46-.8,2.46-2.46s-.92-2.26-2.26-2.44c-.4-.05-.82-.07-1.44-.07h-2.51v5h2.36Z"/>
        <path class="cls-2" d="m164.62,78.22h-12.38v-17.15h12.13v2.68h-8.7v4.52h8.08v2.71h-8.08v4.52h8.95v2.71Z"/>
        <path class="cls-2" d="m173.02,68.28h7.83v2.71h-7.83v7.23h-3.43v-17.15h12.13v2.68h-8.7v4.52Z"/>
        <path class="cls-2" d="m189.12,73.05l-1.71,5.17h-3.65l6.19-17.15h4.3l6.07,17.15h-3.73l-1.69-5.17h-5.77Zm.87-2.71h4.03l-1.99-6.34-2.04,6.34Z"/>
        <path class="cls-2" d="m217.75,73.1c0,3.18-2.41,4.7-4.7,5.02-.87.1-1.42.1-2.39.1h-6.24v-17.15h6.14c.87,0,1.37,0,2.21.1,2.78.35,4.33,1.96,4.33,4.28,0,1.77-.94,2.93-2.66,3.53,2.21.57,3.31,1.91,3.31,4.13Zm-9.89-5h2.58c.42,0,.82-.02,1.22-.07,1.24-.2,1.86-.89,1.86-2.14s-.8-1.91-1.94-2.06c-.4-.05-.85-.07-1.24-.07h-2.49v4.35Zm6.29,5.02c0-1.59-.97-2.26-2.21-2.39-.42-.05-.82-.07-1.22-.07h-2.86v4.85h2.98c.4,0,.82,0,1.14-.02,1.19-.1,2.16-.92,2.16-2.36Z"/>
        <path class="cls-2" d="m244.41,69.48v8.75h-2.76l-.22-2.78-.77,1.74c-.97.94-2.29,1.39-4.18,1.39-4.77,0-7.78-3.38-7.78-8.82s3.65-9.02,8.45-9.02,7.06,2.54,7.41,5.92l.02.25h-3.43l-.05-.25c-.42-2.11-1.71-3.36-4-3.36-2.78,0-4.77,2.36-4.77,6.26,0,4.28,1.99,6.46,4.67,6.46,2.21,0,3.78-1.44,4.13-3.85h-3.63v-2.68h6.91Z"/>
        <path class="cls-2" d="m253.53,73.05l-1.71,5.17h-3.65l6.19-17.15h4.3l6.06,17.15h-3.73l-1.69-5.17h-5.77Zm.87-2.71h4.03l-1.99-6.34-2.04,6.34Z"/>
        <path class="cls-2" d="m282.5,78.22h-3.75c-.42-1.17-.67-2.21-.85-3.83-.22-1.84-.92-2.96-2.31-3.06-.47-.02-.89-.02-1.34-.02h-1.99v6.91h-3.43v-17.15h6.26c.99,0,1.64.02,2.49.12,2.49.3,4.5,1.59,4.5,4.55,0,2.21-1.32,3.6-3.36,4.18,1.69.65,2.34,2.06,2.54,3.98.22,2.09.55,3.36,1.24,4.33Zm-7.88-9.47c.6,0,1.02,0,1.39-.02,1.37-.12,2.46-.8,2.46-2.46s-.92-2.26-2.26-2.44c-.4-.05-.82-.07-1.44-.07h-2.51v5h2.36Z"/>
        <path class="cls-2" d="m302.28,69.43c0,5.24-3.13,8.23-7.11,8.7-.87.1-1.27.1-2.19.1h-5.87v-17.15h5.92c.92,0,1.32,0,2.19.1,3.98.47,7.06,3.01,7.06,8.25Zm-3.63.05c0-3.38-1.64-5.29-4.18-5.62-.57-.07-1.07-.1-1.84-.1h-2.09v11.76h2.04c.75,0,1.27,0,1.81-.07,2.56-.32,4.25-2.46,4.25-5.97Z"/>
        <path class="cls-2" d="m319.7,78.22h-12.38v-17.15h12.13v2.68h-8.7v4.52h8.08v2.71h-8.08v4.52h8.95v2.71Z"/>
        <path class="cls-2" d="m335.03,78.22l-7.06-13.02c.1,1.86.12,3.83.12,5.27v7.76h-3.43v-17.15h4.55l7.21,13.27c-.1-1.84-.12-3.93-.12-5.39v-7.88h3.41l.02,17.15h-4.7Z"/>
        <path class="cls-2" d="m365.5,66.42c0,3.16-2.14,4.92-4.62,5.22-.84.1-1.49.12-2.49.12h-2.51v6.46h-3.43v-17.15h5.94c.99,0,1.64.02,2.49.12,2.61.3,4.62,2.06,4.62,5.22Zm-3.6,0c0-1.62-.85-2.39-2.04-2.56-.37-.05-.9-.07-1.52-.07h-2.46v5.27h2.46c.62,0,1.14-.02,1.52-.07,1.19-.17,2.04-.94,2.04-2.56Z"/>
        <path class="cls-2" d="m385.98,69.65c0,5.37-3.21,8.92-8.48,8.92s-8.48-3.55-8.48-8.92,3.18-8.92,8.48-8.92,8.48,3.53,8.48,8.92Zm-3.6,0c0-4.03-1.84-6.36-4.87-6.36s-4.9,2.34-4.9,6.36,1.84,6.36,4.9,6.36,4.87-2.36,4.87-6.36Z"/>
        <path class="cls-2" d="m406.18,69.43c0,5.24-3.13,8.23-7.11,8.7-.87.1-1.27.1-2.19.1h-5.87v-17.15h5.92c.92,0,1.32,0,2.19.1,3.98.47,7.06,3.01,7.06,8.25Zm-3.63.05c0-3.38-1.64-5.29-4.18-5.62-.57-.07-1.07-.1-1.84-.1h-2.09v11.76h2.04c.75,0,1.27,0,1.81-.07,2.56-.32,4.25-2.46,4.25-5.97Z"/>
        <path class="cls-2" d="m423.25,66.12h-3.5c-.2-1.74-1.17-2.83-2.96-2.83-1.37,0-2.41.65-2.41,2.04s.92,2.16,3.65,2.81c3.78.87,5.47,2.61,5.47,5.37,0,3.23-2.96,5.07-6.34,5.07-4.1,0-6.79-1.81-7.11-5.42h3.5c.37,1.89,1.81,2.86,3.55,2.86,1.57,0,2.81-.84,2.81-2.16,0-1.44-.89-2.29-3.43-2.88-3.5-.84-5.72-2.06-5.72-5.22s2.86-5.02,6.14-5.02c4.1,0,5.97,2.34,6.34,5.39Z"/>
      </g>
      <g>
        <rect class="cls-1" x="443.59" y="67.3" width="96.5" height="3"/>
        <rect class="cls-1" y="67.3" width="96.34" height="3"/>
      </g>
    </g>
  </g>
</svg>