<?xml version="1.0" encoding="UTF-8"?>
<svg id="Layer_2" data-name="Layer 2" xmlns="http://www.w3.org/2000/svg" viewBox="0 0 540.08 78.48">
  <defs>
    <style>
      .cls-1 {
        fill: #64abfb;
      }

      .cls-1, .cls-2, .cls-3 {
        stroke-width: 0px;
      }

      .cls-2 {
        fill: none;
      }

      .cls-3 {
        fill: #fff;
      }
    </style>
  </defs>
  <g id="Layer_2-2" data-name="Layer 2">
    <g>
      <g>
        <path class="cls-3" d="m149.08,77.97h-7.87v-10.9h7.71v1.71h-5.53v2.88h5.13v1.72h-5.13v2.87h5.69v1.72Z"/>
        <path class="cls-3" d="m160.97,77.97h-7.87v-10.9h2.18v9.08h5.69v1.82Z"/>
        <path class="cls-3" d="m172.67,77.97h-7.87v-10.9h7.71v1.71h-5.53v2.88h5.13v1.72h-5.13v2.87h5.69v1.72Z"/>
        <path class="cls-3" d="m186.07,70.61l.02.16h-2.18l-.03-.16c-.27-1.34-1.09-2.13-2.54-2.13-1.75,0-2.94,1.5-2.94,3.98,0,2.72,1.25,4.11,2.91,4.11,1.42,0,2.24-.85,2.53-2.21l.03-.16h2.16l-.02.16c-.24,2.32-2.01,3.84-4.8,3.84-3.03,0-5.12-2.13-5.12-5.61s2.26-5.73,5.28-5.73,4.49,1.61,4.71,3.76Z"/>
        <path class="cls-3" d="m194.92,68.78v9.19h-2.18v-9.19h-3.7v-1.71h9.57v1.71h-3.7Z"/>
        <path class="cls-3" d="m210.78,77.97h-2.39c-.27-.74-.43-1.41-.54-2.43-.14-1.17-.59-1.88-1.47-1.94-.3-.02-.57-.02-.85-.02h-1.26v4.39h-2.18v-10.9h3.98c.63,0,1.04.02,1.58.08,1.58.19,2.86,1.01,2.86,2.89,0,1.41-.84,2.29-2.13,2.65,1.07.41,1.48,1.31,1.61,2.53.14,1.33.35,2.13.79,2.75Zm-5.01-6.02c.38,0,.65,0,.88-.02.87-.08,1.56-.51,1.56-1.56s-.58-1.44-1.44-1.55c-.25-.03-.52-.05-.92-.05h-1.6v3.18h1.5Z"/>
        <path class="cls-3" d="m214.57,77.97v-10.9h2.18v10.9h-2.18Z"/>
        <path class="cls-3" d="m230.72,70.61l.02.16h-2.18l-.03-.16c-.27-1.34-1.09-2.13-2.54-2.13-1.75,0-2.94,1.5-2.94,3.98,0,2.72,1.25,4.11,2.91,4.11,1.42,0,2.24-.85,2.53-2.21l.03-.16h2.16l-.02.16c-.24,2.32-2.01,3.84-4.8,3.84-3.03,0-5.12-2.13-5.12-5.61s2.26-5.73,5.28-5.73,4.49,1.61,4.71,3.76Z"/>
        <path class="cls-3" d="m236.72,74.69l-1.09,3.29h-2.32l3.93-10.9h2.73l3.86,10.9h-2.37l-1.07-3.29h-3.66Zm.55-1.72h2.56l-1.26-4.03-1.3,4.03Z"/>
        <path class="cls-3" d="m255.17,77.97h-7.87v-10.9h2.18v9.08h5.69v1.82Z"/>
        <path class="cls-3" d="m273.6,70.61l.02.16h-2.18l-.03-.16c-.27-1.34-1.09-2.13-2.54-2.13-1.75,0-2.94,1.5-2.94,3.98,0,2.72,1.25,4.11,2.91,4.11,1.42,0,2.24-.85,2.53-2.21l.03-.16h2.16l-.02.16c-.24,2.32-2.01,3.84-4.8,3.84-3.03,0-5.12-2.13-5.12-5.61s2.26-5.73,5.28-5.73,4.49,1.61,4.71,3.76Z"/>
        <path class="cls-3" d="m287.89,72.52c0,3.41-2.04,5.67-5.39,5.67s-5.39-2.26-5.39-5.67,2.02-5.67,5.39-5.67,5.39,2.24,5.39,5.67Zm-2.29,0c0-2.56-1.17-4.04-3.1-4.04s-3.11,1.48-3.11,4.04,1.17,4.04,3.11,4.04,3.1-1.5,3.1-4.04Z"/>
        <path class="cls-3" d="m298.55,77.97l-4.49-8.28c.06,1.18.08,2.43.08,3.35v4.93h-2.18v-10.9h2.89l4.58,8.44c-.06-1.17-.08-2.5-.08-3.43v-5.01h2.16l.02,10.9h-2.99Z"/>
        <path class="cls-3" d="m310.96,68.78v9.19h-2.18v-9.19h-3.7v-1.71h9.57v1.71h-3.7Z"/>
        <path class="cls-3" d="m326.81,77.97h-2.39c-.27-.74-.43-1.41-.54-2.43-.14-1.17-.59-1.88-1.47-1.94-.3-.02-.57-.02-.85-.02h-1.26v4.39h-2.18v-10.9h3.98c.63,0,1.04.02,1.58.08,1.58.19,2.86,1.01,2.86,2.89,0,1.41-.84,2.29-2.13,2.65,1.07.41,1.48,1.31,1.61,2.53.14,1.33.35,2.13.79,2.75Zm-5.01-6.02c.38,0,.65,0,.88-.02.87-.08,1.56-.51,1.56-1.56s-.58-1.44-1.44-1.55c-.25-.03-.52-.05-.92-.05h-1.6v3.18h1.5Z"/>
        <path class="cls-3" d="m332.85,74.69l-1.09,3.29h-2.32l3.93-10.9h2.73l3.86,10.9h-2.37l-1.07-3.29h-3.66Zm.55-1.72h2.56l-1.26-4.03-1.3,4.03Z"/>
        <path class="cls-3" d="m352.57,70.61l.02.16h-2.18l-.03-.16c-.27-1.34-1.09-2.13-2.54-2.13-1.75,0-2.94,1.5-2.94,3.98,0,2.72,1.25,4.11,2.91,4.11,1.42,0,2.24-.85,2.53-2.21l.03-.16h2.16l-.02.16c-.24,2.32-2.01,3.84-4.8,3.84-3.03,0-5.12-2.13-5.12-5.61s2.26-5.73,5.28-5.73,4.49,1.61,4.71,3.76Z"/>
        <path class="cls-3" d="m361.43,68.78v9.19h-2.18v-9.19h-3.7v-1.71h9.57v1.71h-3.7Z"/>
        <path class="cls-3" d="m378.51,72.52c0,3.41-2.04,5.67-5.39,5.67s-5.39-2.26-5.39-5.67,2.02-5.67,5.39-5.67,5.39,2.24,5.39,5.67Zm-2.29,0c0-2.56-1.17-4.04-3.1-4.04s-3.11,1.48-3.11,4.04,1.17,4.04,3.11,4.04,3.1-1.5,3.1-4.04Z"/>
        <path class="cls-3" d="m391.27,77.97h-2.39c-.27-.74-.43-1.41-.54-2.43-.14-1.17-.59-1.88-1.47-1.94-.3-.02-.57-.02-.85-.02h-1.26v4.39h-2.18v-10.9h3.98c.63,0,1.04.02,1.58.08,1.58.19,2.86,1.01,2.86,2.89,0,1.41-.84,2.29-2.13,2.65,1.07.41,1.48,1.31,1.61,2.53.14,1.33.35,2.13.79,2.75Zm-5.01-6.02c.38,0,.65,0,.88-.02.87-.08,1.56-.51,1.56-1.56s-.58-1.44-1.44-1.55c-.25-.03-.52-.05-.92-.05h-1.6v3.18h1.5Z"/>
        <path class="cls-3" d="m402.71,70.28h-2.23c-.13-1.11-.74-1.8-1.88-1.8-.87,0-1.53.41-1.53,1.3s.58,1.37,2.32,1.79c2.4.55,3.48,1.66,3.48,3.41,0,2.05-1.88,3.22-4.03,3.22-2.61,0-4.31-1.15-4.52-3.44h2.23c.24,1.2,1.15,1.82,2.26,1.82.99,0,1.78-.54,1.78-1.38,0-.92-.57-1.45-2.18-1.83-2.23-.54-3.63-1.31-3.63-3.32s1.82-3.19,3.9-3.19c2.61,0,3.79,1.48,4.03,3.43Z"/>
      </g>
      <g>
        <path class="cls-3" d="m68.1,7.93v36.03h-8.54V7.93h-14.49V1.24h37.51v6.68h-14.49Z"/>
        <path class="cls-3" d="m123.2,43.96h-9.35c-1.05-2.91-1.67-5.51-2.1-9.53-.56-4.58-2.29-7.37-5.76-7.61-1.18-.06-2.23-.06-3.34-.06h-4.95v17.21h-8.54V1.24h15.6c2.48,0,4.09.06,6.19.31,6.19.74,11.21,3.96,11.21,11.33,0,5.51-3.28,8.98-8.36,10.4,4.21,1.61,5.82,5.14,6.31,9.9.56,5.2,1.36,8.36,3.1,10.77Zm-19.62-23.59c1.49,0,2.54,0,3.47-.06,3.4-.31,6.13-1.98,6.13-6.13s-2.29-5.63-5.63-6.07c-.99-.12-2.04-.19-3.59-.19h-6.25v12.44h5.88Z"/>
      </g>
      <g>
        <path class="cls-3" d="m263.47,43.96h-30.83V1.24h30.21v6.69h-21.67v11.27h20.12v6.75h-20.12v11.27h22.29v6.75Z"/>
        <path class="cls-3" d="m300.92,43.96l-17.58-32.44c.25,4.64.31,9.53.31,13.12v19.31h-8.54V1.24h11.33l17.95,33.06c-.25-4.58-.31-9.78-.31-13.43V1.24h8.48l.06,42.71h-11.7Z"/>
        <path class="cls-3" d="m357.32,43.96h-30.83V1.24h30.21v6.69h-21.67v11.27h20.12v6.75h-20.12v11.27h22.29v6.75Z"/>
        <path class="cls-3" d="m403.01,43.96h-9.35c-1.05-2.91-1.67-5.51-2.11-9.53-.56-4.58-2.29-7.37-5.76-7.61-1.18-.06-2.23-.06-3.34-.06h-4.95v17.21h-8.54V1.24h15.6c2.48,0,4.09.06,6.19.31,6.19.74,11.2,3.96,11.2,11.33,0,5.51-3.28,8.98-8.36,10.4,4.21,1.61,5.82,5.14,6.31,9.9.56,5.2,1.36,8.36,3.1,10.77Zm-19.62-23.59c1.49,0,2.54,0,3.47-.06,3.4-.31,6.13-1.98,6.13-6.13s-2.29-5.63-5.63-6.07c-.99-.12-2.04-.19-3.59-.19h-6.25v12.44h5.88Z"/>
        <path class="cls-3" d="m450.56,22.17v21.79h-6.87l-.56-6.93-1.92,4.33c-2.41,2.35-5.7,3.47-10.4,3.47-11.89,0-19.38-8.42-19.38-21.98S420.53.38,432.48.38s17.58,6.31,18.45,14.73l.06.62h-8.54l-.12-.62c-1.05-5.26-4.27-8.36-9.97-8.36-6.93,0-11.89,5.88-11.89,15.6,0,10.65,4.95,16.09,11.64,16.09,5.51,0,9.41-3.59,10.28-9.59h-9.04v-6.69h17.21Z"/>
        <path class="cls-3" d="m481.39,43.96h-8.48v-16.53l-15.1-26.19h9.66l9.97,18.63,9.66-18.63h9.41l-15.1,26.19v16.53Z"/>
      </g>
      <path class="cls-1" d="m196.52,37.45c-.12,0-.24-.01-.36-.03-.77-.14-1.38-.72-1.57-1.48l-4.7-19.44-4.47,19.42c-.2.89-.99,1.52-1.89,1.53-.9.05-1.71-.59-1.94-1.47l-5.37-20.35-5.37,20.35c-.23.88-1.06,1.47-1.95,1.47-.91-.02-1.69-.65-1.89-1.54l-4.92-21.88-4.53,9.87c-.32.7-1.02,1.15-1.8,1.15h-23.09c-1.09,0-1.98-.89-1.98-1.98s.88-1.98,1.98-1.98h21.82l6.45-14.04c.35-.77,1.16-1.22,2-1.14.84.09,1.54.7,1.72,1.53l4.43,19.69,5.22-19.76c.23-.87,1.01-1.47,1.91-1.47h0c.9,0,1.68.6,1.91,1.47l5.24,19.85,4.56-19.79c.21-.89,1-1.53,1.92-1.53h.01c.91,0,1.71.62,1.92,1.51l5.62,23.26,4.47-6.55c.37-.54.98-.86,1.63-.86h19.06c1.09,0,1.98.89,1.98,1.98s-.88,1.98-1.98,1.98h-18.02l-6.39,9.36c-.37.55-.99.86-1.63.86Z"/>
      <rect class="cls-1" x="40.78" y="70.15" width="82.43" height="3.95"/>
      <rect class="cls-1" x="416.88" y="70.15" width="82.43" height="3.95"/>
    </g>
    <rect class="cls-2" width="540.08" height="78.48"/>
  </g>
</svg>